<?xml version="1.0" encoding="utf-8"?><svg viewBox="0 0 32 32" xmlns="http://www.w3.org/2000/svg" xmlns:xlink="http://www.w3.org/1999/xlink"><style>:root>svg{display:none}:root>svg:target{display:block}</style><svg fill="none" viewBox="0 0 24 24" id="arrow" xmlns="http://www.w3.org/2000/svg"><path fill-rule="evenodd" clip-rule="evenodd" d="M11.222 15.682 5 9.536 6.555 8 12 13.378 17.445 8 19 9.536l-6.222 6.146a1.107 1.107 0 0 1-1.556 0Z" fill="#000"/></svg><svg fill="none" viewBox="0 0 32 32" id="mail" xmlns="http://www.w3.org/2000/svg"><path d="M5.333 26.667c-.733 0-1.36-.261-1.882-.783A2.573 2.573 0 0 1 2.667 24V8c0-.733.261-1.361.784-1.883a2.574 2.574 0 0 1 1.882-.784h21.334a2.57 2.57 0 0 1 1.884.784c.522.523.783 1.15.782 1.883v16c0 .733-.26 1.361-.782 1.884a2.561 2.561 0 0 1-1.884.783H5.333ZM16 17.333 5.333 10.667V24h21.334V10.667L16 17.333Zm0-2.666L26.667 8H5.333L16 14.667Zm-10.667-4V8v16-13.333Z" fill="#007057" opacity=".7"/></svg><svg fill="none" viewBox="0 0 32 32" id="viber" xmlns="http://www.w3.org/2000/svg"><g opacity=".7" fill="#007057"><path d="M10.62 8.27c-.248-.037-.5.013-.716.14h-.019c-.5.294-.95.663-1.334 1.098-.32.37-.494.743-.539 1.103-.027.213-.008.43.055.633l.024.013c.36 1.058.829 2.075 1.402 3.032a17.863 17.863 0 0 0 2.707 3.7l.032.046.05.037.031.036.038.032a18.135 18.135 0 0 0 3.709 2.72c1.54.839 2.475 1.235 3.036 1.4v.008c.164.05.313.073.464.073a2.133 2.133 0 0 0 1.285-.552c.434-.384.8-.836 1.086-1.338v-.01c.268-.506.177-.984-.21-1.308a16.002 16.002 0 0 0-2.508-1.8c-.597-.324-1.204-.128-1.449.2l-.524.662c-.27.328-.757.282-.757.282l-.014.008c-3.641-.929-4.613-4.616-4.613-4.616s-.045-.5.292-.757l.656-.528c.315-.256.533-.861.196-1.459a16.002 16.002 0 0 0-1.796-2.506 1 1 0 0 0-.587-.35m6.156-1.602a.667.667 0 0 0 0 1.333c1.686 0 3.086.55 4.194 1.607a5.91 5.91 0 0 1 1.304 2.01c.292.751.425 1.552.39 2.355a.667.667 0 0 0 1.334.056 7.201 7.201 0 0 0-2.087-5.365l-.013-.014c-1.375-1.313-3.114-1.982-5.122-1.982Z"/><path d="M16.727 8.859a.667.667 0 1 0 0 1.333h.022c1.216.087 2.102.492 2.722 1.157.636.686.965 1.538.94 2.591a.666.666 0 1 0 1.333.03c.032-1.382-.413-2.575-1.296-3.527v-.003c-.903-.968-2.141-1.48-3.632-1.58l-.023-.003-.066.002Z"/><path d="M16.701 11.092a.667.667 0 1 0-.069 1.33c.557.03.913.198 1.137.423.226.227.394.59.424 1.16a.669.669 0 0 0 .702.654.665.665 0 0 0 .629-.724c-.043-.8-.293-1.507-.807-2.027-.516-.52-1.218-.773-2.016-.816Z"/><path fill-rule="evenodd" clip-rule="evenodd" d="M9.423 3.179a29.533 29.533 0 0 1 12.885 0l.452.1a6.88 6.88 0 0 1 5.163 5.017 26.268 26.268 0 0 1 0 12.933 6.88 6.88 0 0 1-5.163 5.018l-.453.1a29.599 29.599 0 0 1-8.103.665l-3.537 3.165a1 1 0 0 1-1.654-.58l-.585-3.496a6.88 6.88 0 0 1-4.62-4.872 26.267 26.267 0 0 1 0-12.933 6.88 6.88 0 0 1 5.163-5.017l.452-.1Zm12.449 1.95a27.533 27.533 0 0 0-12.013 0l-.454.102a4.88 4.88 0 0 0-3.658 3.557 24.266 24.266 0 0 0 0 11.95 4.88 4.88 0 0 0 3.66 3.557l.12.026a1.001 1.001 0 0 1 .768.81l.392 2.345 2.496-2.233a.999.999 0 0 1 .737-.254 27.599 27.599 0 0 0 7.952-.593l.452-.101a4.88 4.88 0 0 0 3.66-3.558c.995-3.92.995-8.028 0-11.95a4.88 4.88 0 0 0-3.66-3.556l-.452-.102Z"/></g></svg><svg fill="none" viewBox="0 0 32 32" id="whatsapp" xmlns="http://www.w3.org/2000/svg"><path d="M25.4 6.547a13.093 13.093 0 0 0-9.347-3.88C8.773 2.667 2.84 8.6 2.84 15.88c0 2.333.613 4.6 1.76 6.6l-1.867 6.853 7-1.84a13.216 13.216 0 0 0 6.32 1.614c7.28 0 13.214-5.934 13.214-13.214A13.13 13.13 0 0 0 25.4 6.547Zm-9.347 20.32c-1.973 0-3.906-.534-5.6-1.534l-.4-.24-4.16 1.094L7 22.133l-.267-.413a11.013 11.013 0 0 1-1.68-5.84c0-6.053 4.934-10.987 10.987-10.987A10.87 10.87 0 0 1 23.8 8.12a10.907 10.907 0 0 1 3.213 7.773c.027 6.054-4.906 10.974-10.96 10.974Zm6.027-8.214c-.333-.16-1.96-.96-2.253-1.08-.307-.106-.52-.16-.747.16-.227.334-.853 1.08-1.04 1.294-.187.226-.387.253-.72.08-.333-.16-1.4-.52-2.653-1.64-.987-.88-1.64-1.96-1.84-2.294-.187-.333-.027-.506.146-.68.147-.146.334-.386.494-.573.16-.187.226-.333.333-.547.107-.226.053-.413-.027-.573-.08-.16-.746-1.787-1.013-2.453-.267-.64-.547-.56-.747-.574h-.64c-.226 0-.573.08-.88.414-.293.333-1.146 1.133-1.146 2.76 0 1.626 1.186 3.2 1.346 3.413.16.227 2.334 3.56 5.64 4.987.787.346 1.4.546 1.88.693.787.253 1.507.213 2.08.133.64-.093 1.96-.8 2.227-1.573.28-.773.28-1.427.187-1.573-.094-.147-.294-.214-.627-.374Z" fill="#007057" opacity=".7"/></svg></svg>