<svg width="98" height="98" viewBox="0 0 98 98" fill="none" xmlns="http://www.w3.org/2000/svg">
<path d="M48.9655 72.742C40.4868 72.742 31.9943 72.742 23.5156 72.742C21.2408 72.742 20 71.5163 20 69.2827C20 62.0237 20 54.7646 20 47.4919C20 45.4218 21.0616 44.2233 23.1709 44.0735C24.6047 43.9646 26.0523 43.9509 27.4999 44.1007C29.3335 44.2778 30.4364 45.5172 30.4364 47.3421C30.4364 51.8501 30.4364 56.3444 30.4364 60.8524C30.4364 61.1112 30.4364 61.3699 30.4916 61.6151C30.5881 62.0781 30.8776 62.3642 31.3877 62.3778C31.6083 62.3778 31.8151 62.3778 32.0357 62.3778C43.3406 62.3778 54.6456 62.3778 65.9506 62.3778C67.343 62.3778 67.5636 62.1599 67.5636 60.7979C67.5636 56.3444 67.5636 51.8773 67.5636 47.4238C67.5636 45.4627 68.6252 44.2506 70.6104 44.0871C72.1821 43.9509 73.7537 43.9509 75.3116 44.1144C76.7868 44.2778 77.9724 45.558 77.9862 47.0153C77.9862 54.6012 78 62.1735 77.9862 69.7594C77.9862 71.4209 76.58 72.7148 74.8291 72.7284C71.1894 72.7284 67.5498 72.7284 63.9101 72.7284C58.9332 72.7284 53.9563 72.7284 48.9793 72.7284L48.9655 72.742Z" fill="#007057"/>
<path d="M43.768 49.2032C43.768 46.847 43.7542 44.4909 43.768 42.1348C43.768 41.59 43.6301 41.3721 43.0511 41.3993C42.0585 41.4402 41.0658 41.3993 40.087 41.413C39.5493 41.413 39.053 41.3993 38.7497 40.8546C38.4464 40.2962 38.6808 39.8467 38.9841 39.3837C41.0107 36.2785 43.0373 33.1733 45.0639 30.0681C45.9876 28.6517 46.8976 27.2489 47.8213 25.8462C48.5519 24.7294 49.3929 24.7158 50.1236 25.8189C53.1153 30.3814 56.0932 34.9574 59.0711 39.5199C59.3468 39.9421 59.4709 40.3643 59.2365 40.841C58.9746 41.3585 58.5058 41.4402 57.9819 41.4266C56.9479 41.413 55.914 41.4538 54.88 41.413C54.3285 41.3993 54.1906 41.59 54.1906 42.1075C54.2044 46.7926 54.1906 51.4912 54.1906 56.1762C54.1906 57.4292 53.9011 57.7288 52.6465 57.7288C50.165 57.7288 47.6972 57.7288 45.2156 57.7288C44.0989 57.7288 43.768 57.3883 43.768 56.2852C43.768 53.929 43.768 51.5729 43.768 49.2168V49.2032Z" fill="#007057"/>
</svg>
