<svg width="98" height="98" viewBox="0 0 98 98" fill="none" xmlns="http://www.w3.org/2000/svg">
<path d="M56.1684 70.0913C54.8829 70.1051 53.7303 69.568 52.5259 69.2509C51.4043 68.9546 50.3293 68.4798 49.1525 68.3862C47.7704 68.277 46.5367 68.854 45.2546 69.2023C44.1952 69.49 43.1719 69.9475 42.0745 70.0532C39.9297 70.2576 38.1715 69.4744 36.9015 67.7312C36.075 66.5979 35.3175 65.4127 34.5807 64.2188C33.8335 63.011 32.8051 62.1896 31.4989 61.668C30.3981 61.2279 29.311 60.7514 28.2291 60.2679C25.4649 59.0342 24.2518 56.7884 24.6625 53.7906C24.8506 52.4234 24.98 51.0476 25.1077 49.6717C25.206 48.6112 24.9576 47.6201 24.4624 46.6739C23.8412 45.487 23.2459 44.2878 22.6575 43.0853C21.4841 40.6853 21.8931 38.2351 23.7894 36.3689C24.804 35.3708 25.8479 34.3986 26.8884 33.4265C27.7874 32.5861 28.3223 31.5568 28.588 30.3612C28.8693 29.0962 29.1678 27.8364 29.4784 26.5784C30.1651 23.7903 32.234 22.1303 35.1018 22.0159C36.4563 21.9622 37.8108 21.8496 39.1653 21.782C40.2628 21.7265 41.2118 21.302 42.0763 20.6574C43.1323 19.8724 44.1796 19.0736 45.2356 18.2886C47.5375 16.58 50.0481 16.5696 52.3568 18.2626C53.2782 18.9401 54.2238 19.5917 55.0917 20.3316C56.4152 21.4614 57.9509 21.8461 59.6384 21.8859C60.8859 21.9154 62.1421 21.9553 63.3741 22.132C65.8761 22.4924 67.4428 23.9844 68.102 26.4086C68.4591 27.7203 68.7404 29.0529 69.0372 30.3802C69.3046 31.5741 69.8464 32.6 70.7489 33.4387C71.7928 34.409 72.8333 35.3811 73.8462 36.3827C75.7183 38.2299 76.129 40.6732 74.9798 43.0454C74.4052 44.2307 73.8358 45.4211 73.2008 46.5734C72.5192 47.8089 72.4019 49.112 72.5572 50.4688C72.6987 51.713 72.8799 52.952 73.0214 54.1944C73.3147 56.7676 72.0171 59.0757 69.6687 60.1432C68.4315 60.7046 67.184 61.2435 65.9296 61.7616C64.7545 62.2468 63.8193 62.9919 63.1394 64.0767C62.4734 65.1371 61.7711 66.1751 61.0895 67.2252C59.93 69.0117 58.3356 70.0428 56.1701 70.0878L56.1684 70.0913ZM67.0615 43.5375C67.1857 34.0451 59.5297 25.2303 48.8109 25.2338C38.0783 25.2355 30.4533 34.0746 30.543 43.5999C30.6379 53.775 38.6908 61.869 48.8419 61.8552C58.9827 61.8413 67.077 53.704 67.0632 43.5375H67.0615Z" fill="#007057"/>
<path d="M69.1752 76.6829C67.8984 76.4594 66.5801 76.2428 65.2687 75.9967C63.4845 75.6623 63.4845 75.6519 62.5597 77.2288C61.9161 78.3274 61.2776 79.4312 60.6357 80.5315C60.5063 80.7533 60.3907 81.0063 60.0732 80.9994C59.7506 80.9925 59.6539 80.7273 59.547 80.4951C58.3149 77.8526 57.0933 75.2066 55.8544 72.5675C55.6439 72.1187 55.7888 71.9904 56.234 71.9853C59.1449 71.9541 61.2656 70.5695 62.784 68.1453C63.2654 67.3777 63.7762 66.6256 64.2766 65.8701C64.6958 65.2376 64.7597 65.2359 65.0772 65.9169C66.3558 68.6565 67.6257 71.3996 68.8992 74.1426C69.1718 74.73 69.4634 75.3105 69.7102 75.9084C69.912 76.3987 69.7136 76.6777 69.1752 76.6829Z" fill="#007057"/>
<path d="M37.7073 81.0046C37.3639 80.982 37.25 80.7343 37.1223 80.5125C36.3182 79.1331 35.49 77.7659 34.7308 76.3606C34.4444 75.8321 34.1303 75.6813 33.554 75.7957C32.0131 76.1007 30.4619 76.3537 28.9141 76.6292C28.6173 76.6812 28.305 76.78 28.0704 76.501C27.8409 76.2289 28.0307 75.9655 28.1446 75.7177C29.6664 72.4254 31.1952 69.1382 32.712 65.8441C32.9087 65.4179 33.0605 65.4248 33.3038 65.8043C33.887 66.7123 34.4754 67.6168 35.0811 68.5109C36.5892 70.7324 38.6494 71.9575 41.3688 71.9904C42.1038 71.9991 42.1522 72.0684 41.8519 72.7165C40.6562 75.3019 39.4518 77.8855 38.2491 80.4674C38.1317 80.7204 38.023 80.9942 37.7073 81.0063V81.0046Z" fill="#007057"/>
<path d="M48.835 27.1901C57.9163 27.2023 65.1652 34.4992 65.1548 43.6173C65.1444 52.6383 57.8007 59.9664 48.7815 59.9595C39.7192 59.9508 32.448 52.5811 32.46 43.4353C32.4721 34.4749 39.9194 27.0706 48.835 27.1919V27.1901ZM46.6402 50.8275C47.4305 50.8674 48.0154 50.5018 48.5348 49.9733C51.3939 47.0673 54.2583 44.1648 57.1209 41.2624C57.4694 40.9089 57.8335 40.5692 58.1579 40.1949C58.9948 39.2298 58.9465 37.8539 58.0664 36.9667C57.0777 35.9703 55.6801 35.9963 54.6189 37.0603C52.1066 39.5815 49.5994 42.108 47.1078 44.65C46.7541 45.0122 46.5246 45.0278 46.1691 44.6604C45.1045 43.5583 44.0226 42.4736 42.9252 41.4062C41.9279 40.4358 40.4957 40.4393 39.5656 41.3767C38.6235 42.3263 38.6045 43.7507 39.5794 44.7471C41.3602 46.5665 43.1685 48.3583 44.9699 50.1569C45.4323 50.6196 45.9914 50.8709 46.6402 50.8275Z" fill="#007057"/>
</svg>
