<svg width="98" height="98" viewBox="0 0 98 98" fill="none" xmlns="http://www.w3.org/2000/svg">
<path d="M49.0327 77.1237C39.8539 77.1237 30.684 77.1237 21.5052 77.1237C20.3893 77.1237 19.3814 76.8628 18.5175 76.1339C16.8887 74.757 16.5378 72.7413 17.6266 70.8605C19.6064 67.4499 21.6041 64.0394 23.5929 60.6288C30.864 48.1744 38.1351 35.7109 45.3972 23.2475C47.1429 20.2508 50.9135 20.2418 52.6863 23.2745C58.4725 33.1732 64.2408 43.09 70.0181 52.9978C73.4467 58.874 76.8212 64.7683 80.3128 70.5995C82.0766 73.5332 80.1688 76.4128 78.0631 76.9438C77.4872 77.0877 76.9022 77.1327 76.3083 77.1327C67.2194 77.1327 58.1306 77.1327 49.0417 77.1327L49.0327 77.1237ZM52.9562 41.2092C52.9382 40.7323 52.9472 40.3633 52.8392 39.9944C52.2813 38.0506 50.3645 36.8268 48.4478 37.1957C46.2791 37.6187 44.9922 39.3735 45.2622 41.6052C45.8111 46.0596 46.378 50.5051 46.945 54.9595C47.098 56.1294 47.9438 56.9033 49.0507 56.9213C50.2026 56.9393 51.0665 56.1924 51.2194 54.9865C51.5704 52.3138 51.9123 49.6502 52.2453 46.9775C52.4883 45.0247 52.7222 43.063 52.9472 41.2182L52.9562 41.2092ZM49.0417 61.2047C46.9 61.2047 45.1452 62.9235 45.1272 65.0652C45.1002 67.189 46.945 69.0427 49.0507 69.0158C51.1654 68.9888 52.9382 67.198 52.9292 65.0922C52.9292 62.9415 51.1924 61.2137 49.0507 61.2047H49.0417Z" fill="#007057"/>
</svg>
