<svg width="98" height="98" viewBox="0 0 98 98" fill="none" xmlns="http://www.w3.org/2000/svg">
<path d="M82 60.3717C81.6817 62.17 81.3433 63.96 80.785 65.705C79.595 69.4283 77.7617 72.8033 75.3033 75.84C74.85 76.4 74.2567 76.4367 73.745 75.92C72.3583 74.515 70.9933 73.0867 69.6033 71.6833C69.1567 71.2317 69.2383 70.845 69.57 70.3683C71.4733 67.6283 72.85 64.6433 73.6433 61.4C73.8017 60.755 73.9283 60.1033 74.045 59.45C74.1383 58.925 74.45 58.7083 74.9567 58.7083C77.0167 58.7083 79.0767 58.715 81.1367 58.7C81.5167 58.6967 81.7583 58.885 81.9967 59.1233V60.3717H82Z" fill="#007057"/>
<path d="M18 59.1234C18.2733 58.795 18.6183 58.6934 19.0467 58.6984C20.9817 58.7167 22.9167 58.7034 24.8517 58.7084C25.6617 58.71 25.855 58.8517 25.9883 59.6334C26.6633 63.59 28.21 67.185 30.4967 70.4717C30.8183 70.9334 30.7733 71.2967 30.3933 71.6834C29.0233 73.0767 27.67 74.4867 26.2983 75.8784C25.715 76.47 25.155 76.415 24.6183 75.7434C21.0867 71.3267 18.895 66.33 18.085 60.7334C18.0667 60.6117 18.0283 60.4917 18 60.3717C18 59.955 18 59.54 18 59.1234Z" fill="#007057"/>
<path d="M82 52.7617C81.7267 53.09 81.3817 53.1917 80.9517 53.1867C79.0167 53.1683 77.08 53.1817 75.1433 53.1767C74.3367 53.175 74.1417 53.0317 74.0083 52.25C73.3333 48.2917 71.7867 44.695 69.4983 41.4067C69.175 40.9417 69.2283 40.58 69.6133 40.1983C71.0167 38.8083 72.4067 37.4033 73.8133 36.015C74.4 35.435 74.8533 35.475 75.375 36.13C78.8817 40.5383 81.0583 45.525 81.9083 51.0883C81.93 51.2317 81.97 51.37 82 51.5117V52.76V52.7617Z" fill="#007057"/>
<path d="M18 51.5133C18.3733 49.3217 18.8417 47.1533 19.6117 45.06C20.81 41.795 22.4817 38.795 24.665 36.0817C25.1383 35.4933 25.61 35.4467 26.1433 35.9717C27.5667 37.3717 28.97 38.7917 30.3883 40.1967C30.7733 40.5783 30.8267 40.9433 30.5033 41.4067C28.1983 44.71 26.6483 48.33 25.9867 52.3117C25.8817 52.9417 25.545 53.1884 24.92 53.1833C22.9633 53.1684 21.0067 53.1683 19.05 53.1867C18.6217 53.19 18.275 53.09 18.0017 52.7617V51.5133H18Z" fill="#007057"/>
<path d="M50.04 70.02C42.1633 70.03 35.845 63.82 35.8367 56.06C35.8283 47.8333 42.71 41.805 49.99 41.8516C57.855 41.9016 64.1633 48.08 64.1583 55.8566C64.1533 64.0117 57.36 70.1017 50.0383 70.0217L50.04 70.02ZM58.9733 55.905C58.88 54.3166 59.09 52.6916 58.8417 51.0783C58.665 49.9233 57.9617 49.3166 56.805 49.3116C55.4717 49.3066 54.1383 49.3066 52.805 49.3116C51.72 49.3166 51.0233 49.8633 50.8083 50.905C50.725 51.31 50.675 51.7283 50.6733 52.1416C50.6617 54.6783 50.6617 57.215 50.6733 59.7516C50.675 60.165 50.7267 60.5833 50.8117 60.9883C51.025 62.0083 51.7167 62.5633 52.7533 62.57C54.0867 62.5783 55.42 62.575 56.7533 62.57C57.985 62.5666 58.6717 61.965 58.85 60.73C59.08 59.1367 58.8833 57.5316 58.9717 55.9033L58.9733 55.905ZM45.19 49.3133C44.44 49.3133 43.69 49.2933 42.9417 49.3183C41.98 49.35 41.2883 49.87 41.11 50.635C41.015 51.0433 41.15 51.3416 41.525 51.4983C41.9167 51.6616 42.2317 51.5233 42.38 51.1283C42.5067 50.79 42.7383 50.7166 43.06 50.7183C44.475 50.7266 45.8917 50.7316 47.3067 50.7166C47.7683 50.7116 47.93 50.9033 47.9233 51.3516C47.9067 52.4533 47.9017 53.555 47.9233 54.655C47.9333 55.15 47.7317 55.3116 47.2567 55.305C45.9867 55.2866 44.7167 55.2983 43.4467 55.3C43.2183 55.3 42.9867 55.2883 42.7617 55.3216C42.3983 55.3733 42.1133 55.5766 42.0917 55.9533C42.0683 56.365 42.3583 56.59 42.735 56.6783C42.9133 56.72 43.1067 56.7083 43.295 56.7083C44.6067 56.71 45.9183 56.7267 47.23 56.7017C47.7333 56.6917 47.9417 56.8466 47.9267 57.375C47.8967 58.4133 47.8983 59.4533 47.9267 60.4916C47.94 61.0183 47.7233 61.1767 47.2233 61.17C45.85 61.1483 44.475 61.1566 43.1017 61.1666C42.7583 61.17 42.5117 61.0933 42.3533 60.7483C42.2017 60.42 41.9233 60.2133 41.5433 60.3883C41.1567 60.5667 41.005 60.8716 41.1283 61.31C41.3417 62.0616 42.03 62.555 43.0067 62.5666C44.4217 62.585 45.8383 62.5816 47.2533 62.57C48.7283 62.5583 49.2767 61.9433 49.345 60.4667C49.4367 58.4867 49.1183 56.515 49.315 54.5316C49.42 53.4616 49.34 52.3733 49.3317 51.2916C49.3217 49.97 48.7133 49.3516 47.3783 49.315C46.65 49.295 45.9217 49.3116 45.1917 49.3133H45.19Z" fill="#007057"/>
<path d="M47.2933 28.02C47.2933 28.935 47.295 29.8483 47.2933 30.7633C47.2917 31.6817 47.065 31.95 46.1667 32.0683C44.55 32.2833 42.9833 32.6917 41.4567 33.2567C39.4333 34.005 37.555 35.0233 35.8167 36.3017C35.02 36.8883 34.7383 36.87 34.0433 36.18C32.715 34.86 31.39 33.5383 30.0667 32.2117C29.3817 31.5233 29.4133 31.0717 30.1917 30.48C34.9583 26.8583 40.3083 24.6867 46.265 24.0133C46.9683 23.9333 47.2733 24.1833 47.2867 24.9017C47.305 25.94 47.2917 26.98 47.2917 28.02H47.2933Z" fill="#007057"/>
<path d="M52.7083 27.9733C52.7083 26.975 52.6983 25.9783 52.7117 24.98C52.7217 24.1767 53.005 23.9317 53.7833 24.02C59.7167 24.695 65.0483 26.8617 69.7967 30.47C70.5983 31.08 70.6233 31.5233 69.9 32.2467C68.5767 33.5717 67.2517 34.895 65.9233 36.215C65.28 36.855 64.9733 36.875 64.2483 36.345C61.1167 34.0533 57.645 32.5917 53.7867 32.0617C52.945 31.9467 52.71 31.67 52.7067 30.84C52.7033 29.8833 52.7067 28.9283 52.7067 27.9717L52.7083 27.9733Z" fill="#007057"/>
<path d="M62.1533 46.3633C59.55 43.1483 56.2717 41.2017 52.2217 40.5983C52.34 40.2767 52.5683 40.2433 52.745 40.1583C55.2867 38.9233 57.83 37.6917 60.375 36.465C61.1367 36.0983 61.5917 36.3167 61.6733 37.1533C61.81 38.535 61.9017 39.92 62 41.305C62.0983 42.69 62.1883 44.0767 62.2683 45.4633C62.2833 45.7233 62.35 45.9967 62.1533 46.365V46.3633Z" fill="#007057"/>
<path d="M57.5433 55.9917C57.5433 57.3417 57.5517 58.69 57.54 60.04C57.5317 60.9767 57.3317 61.1617 56.4017 61.1634C55.3 61.1634 54.1967 61.1667 53.095 61.1634C52.33 61.1617 52.11 60.9584 52.0917 60.1584C52.07 59.245 52.0833 58.3317 52.0833 57.4184C52.0833 55.5917 52.0783 53.765 52.085 51.9384C52.0883 50.8884 52.265 50.7217 53.32 50.7217C54.4017 50.7217 55.4833 50.7184 56.565 50.7217C57.2817 50.725 57.5233 50.94 57.535 51.695C57.5567 53.1267 57.5417 54.56 57.5417 55.9917H57.545H57.5433Z" fill="#007057"/>
</svg>
