<svg width="98" height="98" viewBox="0 0 98 98" fill="none" xmlns="http://www.w3.org/2000/svg">
<path d="M49.0286 51.5947C51.9973 51.5947 54.966 51.6056 57.9347 51.5856C58.5168 51.582 58.7653 51.7488 58.8614 52.36C59.3111 55.2398 59.8135 58.1106 60.2959 60.9832C60.4391 61.8319 60.4174 61.8573 59.5415 61.8591C56.8212 61.8591 54.1028 61.8845 51.3844 61.8427C50.6735 61.8319 50.4957 62.0658 50.5193 62.735C50.5665 64.0897 50.552 65.4498 50.5248 66.8063C50.5139 67.3467 50.717 67.519 51.2393 67.5081C52.3709 67.4827 53.5061 67.4755 54.6378 67.5135C55.8038 67.5516 56.5274 68.4366 56.2572 69.425C56.0759 70.0905 55.5826 70.533 54.8862 70.5348C50.9654 70.5493 47.0447 70.5511 43.1257 70.5348C42.3169 70.5312 41.7239 69.8983 41.6785 69.104C41.6368 68.3931 42.1736 67.7076 42.9498 67.5698C43.8692 67.4065 44.8032 67.5135 45.7317 67.5045C47.469 67.49 47.469 67.5008 47.469 65.7998C47.469 64.7135 47.4454 63.6272 47.4781 62.5428C47.4944 62.0005 47.2913 61.8464 46.7654 61.85C44.0016 61.8699 41.236 61.8609 38.4723 61.8591C37.5891 61.8591 37.5637 61.8319 37.7052 60.9958C38.1894 58.0997 38.6899 55.2054 39.1505 52.3056C39.2358 51.7652 39.4552 51.5856 39.9866 51.5893C43.0006 51.6056 46.0146 51.5965 49.0286 51.5965V51.5947Z" fill="#007057"/>
<path d="M26.3092 61.8591C23.7939 61.8591 21.2768 61.8628 18.7614 61.8591C17.356 61.8555 16.734 61.0557 17.1057 59.6866C17.7803 57.1984 18.4912 54.7212 19.164 52.2331C19.2946 51.7507 19.5376 51.5875 20.0254 51.5893C25.2846 51.602 30.5437 51.6002 35.801 51.5893C36.2562 51.5893 36.4811 51.6963 36.394 52.2059C35.8772 55.258 35.3694 58.3119 34.8689 61.3659C34.7855 61.87 34.4391 61.8591 34.0601 61.8591C31.4758 61.8555 28.8916 61.8573 26.3074 61.8573L26.3092 61.8591Z" fill="#007057"/>
<path d="M70.1142 51.5947C72.6984 51.5947 75.2826 51.6093 77.8669 51.5839C78.4363 51.5784 78.7101 51.7489 78.8625 52.322C79.5063 54.7466 80.2117 57.1567 80.87 59.5777C81.2871 61.1083 80.6868 61.8555 79.0765 61.8573C74.1129 61.8573 69.1476 61.8446 64.184 61.8736C63.4605 61.8773 63.1685 61.7032 63.0524 60.9397C62.6281 58.1016 62.1148 55.278 61.6379 52.4489C61.5037 51.6473 61.5454 51.5984 62.3615 51.5966C64.9457 51.5947 67.5299 51.5966 70.1142 51.5966V51.5947Z" fill="#007057"/>
<path d="M31.1095 37.2754C28.7538 37.2754 26.3962 37.2627 24.0405 37.2844C23.4402 37.2899 23.2897 37.1139 23.4511 36.5282C24.2037 33.8061 24.9219 31.0732 25.6654 28.3475C25.9429 27.3265 26.3618 27.0146 27.4136 27.0146C31.5375 27.011 35.6614 27.0219 39.7853 27.0019C40.3692 26.9983 40.5959 27.118 40.4853 27.76C39.9757 30.6978 39.4897 33.6393 39.029 36.5844C38.9438 37.1321 38.7044 37.288 38.1821 37.2826C35.8264 37.2627 33.4689 37.2735 31.1131 37.2735L31.1095 37.2754Z" fill="#007057"/>
<path d="M66.8172 37.2754C64.5068 37.2754 62.1946 37.259 59.8842 37.2862C59.293 37.2935 59.05 37.1049 58.9575 36.5119C58.5042 33.5885 58.0181 30.6688 57.5194 27.7527C57.4233 27.1887 57.5557 26.9965 58.156 27.0001C62.3252 27.0219 66.4944 27.0092 70.6636 27.0128C71.6012 27.0128 72.0636 27.3447 72.303 28.2224C73.0665 31.0134 73.8064 33.8098 74.5699 36.5989C74.7113 37.1176 74.5518 37.2844 74.0222 37.2808C71.6212 37.2627 69.2183 37.2736 66.8172 37.2736V37.2754Z" fill="#007057"/>
<path d="M48.9997 48.8274C46.167 48.8274 43.3361 48.8128 40.5035 48.8401C39.9014 48.8455 39.7617 48.6406 39.856 48.0893C40.2804 45.6193 40.6921 43.1457 41.0946 40.6721C41.169 40.2133 41.3812 40.0374 41.8636 40.0374C46.6204 40.0519 51.379 40.0519 56.1376 40.0374C56.6218 40.0374 56.8303 40.2151 56.9047 40.6739C57.3073 43.1475 57.7171 45.6211 58.1433 48.0911C58.2394 48.646 58.0943 48.8473 57.4941 48.8401C54.6632 48.8128 51.8305 48.8274 48.9979 48.8274H48.9997Z" fill="#007057"/>
<path d="M28.5253 48.8273C26.0118 48.8273 23.4983 48.8273 20.983 48.8273C20.1034 48.8273 20.1034 48.8219 20.3428 47.9478C20.9975 45.5503 21.663 43.1565 22.2959 40.7536C22.4337 40.2295 22.6695 40.0319 23.2317 40.0337C28.032 40.0554 32.8341 40.0573 37.6344 40.0337C38.2764 40.0301 38.4016 40.2368 38.3 40.8225C37.8684 43.2907 37.4585 45.7643 37.065 48.2379C36.9852 48.7403 36.7168 48.8364 36.2707 48.8346C33.6883 48.8219 31.1077 48.8273 28.5253 48.8291V48.8273Z" fill="#007057"/>
<path d="M69.4177 48.8274C66.8789 48.8274 64.34 48.8128 61.8011 48.8382C61.2443 48.8437 61.0031 48.6805 60.9143 48.1056C60.5461 45.739 60.129 43.3796 59.7337 41.0185C59.5705 40.0482 59.5759 40.0464 60.5733 40.0464C65.2648 40.0464 69.9582 40.0591 74.6497 40.0319C75.2844 40.0283 75.5691 40.2133 75.7305 40.8371C76.3489 43.2454 77.0254 45.6392 77.6746 48.0403C77.8795 48.7983 77.8523 48.8255 77.0344 48.8274C74.4955 48.8292 71.9566 48.8274 69.4177 48.8274Z" fill="#007057"/>
<path d="M48.947 37.2753C46.7727 37.2753 44.6001 37.259 42.4257 37.2862C41.8291 37.2935 41.6822 37.0922 41.7801 36.53C42.2879 33.594 42.7793 30.6561 43.2563 27.7164C43.3397 27.1996 43.5519 26.9983 44.0959 27.0019C47.3566 27.0237 50.6173 27.0255 53.8761 27.0001C54.4619 26.9947 54.6614 27.2213 54.7484 27.7563C55.2217 30.6742 55.7096 33.5903 56.2173 36.5028C56.3225 37.1049 56.1593 37.2971 55.5336 37.288C53.3375 37.2554 51.1414 37.2753 48.9452 37.2753H48.947Z" fill="#007057"/>
</svg>
