<svg width="98" height="98" viewBox="0 0 98 98" fill="none" xmlns="http://www.w3.org/2000/svg">
<path d="M35.0525 17H62.9275C63.6388 17.2375 64.35 17.4725 64.9525 17.945C66.4275 19.0987 66.9975 20.62 66.995 22.4788C66.9725 38.825 66.9825 55.1712 66.9813 71.5163C66.9813 71.7663 66.9713 72.0163 66.9725 72.2663C66.9763 72.9487 66.7925 73.5875 66.4913 74.1875C65.5013 76.1538 63.8538 77.0525 61.695 77.0938C60.22 77.1225 60.295 77.0062 60.3075 78.5725C60.3163 79.6575 60.0063 80.5425 58.9275 81.0013H57.6775C56.7125 80.5138 56.3013 79.7238 56.3825 78.6562C56.3963 78.47 56.385 78.2825 56.3838 78.095C56.3813 77.1338 56.3663 77.1138 55.4113 77.1138C51.2738 77.1125 47.1375 77.1138 43 77.1125C41.4013 77.1125 41.5675 77.065 41.61 78.5363C41.6413 79.6388 41.34 80.4975 40.3025 81.0013H39.0525C38.1025 80.5813 37.695 79.825 37.6925 78.815C37.6925 78.4825 37.6725 78.1488 37.6863 77.8162C37.7063 77.3075 37.4675 77.1112 36.9713 77.1087C36.2863 77.1063 35.5925 77.1087 34.9238 76.9412C32.5038 76.3312 31.0088 74.4088 31.0075 71.8838C31.0013 61.35 31.005 50.8162 31.005 40.2825C31.005 34.2662 31.01 28.25 31 22.2337C30.9988 21.32 31.1538 20.4575 31.5825 19.6463C32.3338 18.2287 33.5488 17.4263 35.0525 17ZM48.9225 27.7975C46.6938 27.7975 44.465 27.8 42.2363 27.795C41.8788 27.795 41.5275 27.8162 41.1888 27.9325C40.1913 28.2725 39.7013 29.43 40.1613 30.3787C40.5738 31.2275 41.33 31.4437 42.1913 31.445C46.69 31.4462 51.1888 31.4475 55.6888 31.4412C55.9563 31.4412 56.23 31.4025 56.4925 31.3438C57.2788 31.1687 57.8425 30.4913 57.88 29.7037C57.9188 28.8962 57.385 28.1538 56.5975 27.9113C56.2738 27.8112 55.9438 27.7963 55.6088 27.7963C53.38 27.7987 51.1513 27.7975 48.9225 27.7975ZM48.9163 38.9788C51.3113 38.9788 53.7063 38.9937 56.1013 38.9713C57.1463 38.9613 57.8925 38.1787 57.8825 37.1925C57.8725 36.2087 57.1113 35.4275 56.0713 35.4237C51.3025 35.41 46.5338 35.4163 41.765 35.4212C41.2163 35.4212 40.7463 35.6413 40.405 36.075C39.9588 36.6425 39.8313 37.2775 40.15 37.9475C40.4638 38.6038 40.9925 38.9725 41.7338 38.9737C44.1288 38.9787 46.5238 38.9763 48.9188 38.9775L48.9163 38.9788ZM48.9775 65.4125C47.9775 65.4187 47.2063 66.2075 47.2213 67.21C47.235 68.1712 48.0175 68.9475 48.9788 68.9562C49.9713 68.965 50.7625 68.175 50.7625 67.1787C50.7625 66.175 49.9863 65.4062 48.9775 65.4137V65.4125Z" fill="#007057"/>
</svg>
