<svg width="98" height="98" viewBox="0 0 98 98" fill="none" xmlns="http://www.w3.org/2000/svg">
<path d="M47.8228 48.7271C47.8228 54.88 47.8228 61.033 47.8228 67.195C47.8228 67.5902 47.8048 67.9854 47.7509 68.3717C47.5084 70.0334 45.8916 70.8598 44.4005 70.0424C42.6579 69.0903 40.9422 68.0663 39.2266 67.0692C36.4241 65.4524 33.6215 63.8355 30.828 62.2007C30.4867 62.0031 30.1363 61.9582 29.7591 61.9582C26.4176 61.9582 23.0671 61.9582 19.7257 61.9582C17.9202 61.9582 17.004 61.06 17.004 59.2635C17.004 52.1853 16.995 45.1161 17.004 38.0379C17.004 36.2414 17.9292 35.3522 19.7347 35.3522C23.0761 35.3522 26.4266 35.3522 29.7681 35.3522C30.1992 35.3522 30.5675 35.2624 30.9448 35.0378C35.3192 32.4958 39.7476 30.0076 44.0951 27.3937C45.6311 26.4685 47.8048 27.1781 47.8138 29.4777C47.8138 30.4208 47.8138 31.364 47.8138 32.3071C47.8138 37.7864 47.8138 43.2567 47.8138 48.736L47.8228 48.7271Z" fill="#007057"/>
<path d="M80.986 49.3917C80.9411 56.1286 78.9919 62.0121 75.1025 67.2309C74.2851 68.3268 72.9557 68.5423 71.8599 67.7609C70.5395 66.8177 70.1981 65.4254 71.0604 64.2308C72.2461 62.596 73.333 60.8983 74.0516 59.003C77.4739 50.0564 76.2703 41.7926 70.3418 34.2473C70.0813 33.924 69.7939 33.6186 69.5334 33.3042C68.5813 32.1544 68.7519 30.816 69.9825 29.7112C70.9796 28.8129 72.3629 28.9117 73.306 29.9537C77.5907 34.6964 80.1147 40.2296 80.8244 46.5982C80.9322 47.6042 80.8603 48.6103 80.995 49.3828L80.986 49.3917Z" fill="#007057"/>
<path d="M69.3627 49.248C69.2819 53.4788 68.186 57.2424 65.9134 60.6558C65.3206 61.554 64.5481 62.084 63.4433 61.8684C62.3654 61.6618 61.4132 60.6648 61.2246 59.6138C61.0988 58.8862 61.4222 58.3024 61.7995 57.7185C62.9672 55.913 63.7576 53.9638 64.081 51.826C64.7637 47.3348 63.6768 43.3196 60.8833 39.7626C59.5449 38.0649 60.3174 35.8193 62.4193 35.433C63.3894 35.2534 64.099 35.7205 64.6918 36.4391C66.623 38.7925 67.9704 41.4423 68.7249 44.3975C69.1381 46.0413 69.3268 47.712 69.3717 49.248H69.3627Z" fill="#007057"/>
<path d="M53.3021 49.0684C53.365 47.6671 52.8889 46.4635 52.2062 45.3227C51.6673 44.4334 51.7571 43.5621 52.3589 42.7447C53.0057 41.8644 53.8141 41.2896 54.9818 41.5231C55.5657 41.6399 56.0328 41.9543 56.3561 42.4573C58.8533 46.3197 59.1227 50.3349 57.1107 54.4758C56.4639 55.7962 55.1884 56.2184 53.9937 55.6166C52.5565 54.889 51.9817 53.5327 52.5835 52.1943C53.0416 51.1882 53.3829 50.1553 53.3111 49.0684H53.3021Z" fill="#007057"/>
</svg>
