<svg width="98" height="98" viewBox="0 0 98 98" fill="none" xmlns="http://www.w3.org/2000/svg">
<path d="M61.4178 18C63.1116 18.212 64.8122 18.4022 66.4359 18.9496C75.0178 21.842 80.2669 27.6066 81.7023 36.3487C82.8366 43.2532 80.7014 49.3332 75.7672 54.4036C72.6516 57.6047 68.7815 59.5707 64.3434 60.4669C63.9054 60.5554 63.6385 60.5287 63.6967 59.9813C63.7874 59.1184 63.6847 58.2756 63.2656 57.4928C63.0175 57.0289 63.4058 57.0155 63.683 56.9604C66.0372 56.4931 68.2272 55.6303 70.2033 54.2984C74.8193 51.1858 77.5499 46.9233 78.2035 41.4857C79.3789 31.734 72.33 23.1721 62.7831 21.7635C52.918 20.3065 43.7201 26.6286 41.8706 36.1684C41.6773 37.1681 41.5319 38.1845 41.5746 39.2076C41.5986 39.7901 41.3693 39.9019 40.8526 39.7183C40.5327 39.6048 40.2008 39.5164 39.8671 39.4413C39.14 39.2777 38.8047 39.4763 38.5532 40.1706C38.4283 40.5161 38.3992 40.8999 38.1066 41.3305C37.8158 40.3158 37.8859 39.3895 37.939 38.4816C38.0964 35.7562 38.6781 33.1175 39.8843 30.6424C43.1521 23.9365 48.5363 19.8409 56.001 18.3522C56.8137 18.1903 57.6452 18.1152 58.4664 18C59.4502 18 60.434 18 61.4178 18Z" fill="#007057"/>
<path d="M46.7672 81.6061C43.4754 81.6061 40.1819 81.5994 36.8901 81.6144C36.37 81.6161 35.9611 81.4993 35.5608 81.1471C34.4247 80.1507 33.0269 79.6985 31.5384 79.5215C31.0217 79.4598 30.8472 79.2779 30.8489 78.7805C30.8609 73.2863 30.8592 67.7904 30.8506 62.2961C30.8506 61.8488 30.9943 61.6102 31.4734 61.525C32.0414 61.4249 32.5804 61.2096 33.0885 60.9359C33.9765 60.4552 34.5924 59.821 34.8867 58.7979C36.4949 53.2102 38.1682 47.6409 39.8192 42.0649C40.0587 41.2571 40.0656 41.2504 40.8629 41.5074C44.6029 42.7091 46.6526 46.4442 45.6004 50.1727C45.1025 51.9368 44.567 53.6926 44.0469 55.4517C43.6722 56.7217 43.9476 57.0722 45.3335 57.0722C50.0368 57.0722 54.7401 57.0656 59.4434 57.0772C61.3236 57.0822 62.4084 58.566 61.8523 60.32C61.5461 61.2881 60.7676 61.8772 59.7068 61.8872C57.9326 61.9039 56.1567 61.9189 54.3842 61.8822C53.7734 61.8689 53.6126 62.0741 53.6331 62.6349C53.669 63.5862 53.6399 63.5962 54.362 63.5996C56.0301 63.6062 57.6982 63.5745 59.3647 63.6113C61.3476 63.6547 62.4392 65.145 61.8335 66.9225C61.4896 67.9322 60.6735 68.4763 59.3989 68.4897C57.7307 68.5063 56.0643 68.493 54.3962 68.4963C53.6399 68.4963 53.6725 68.5047 53.6314 69.4176C53.604 70.0118 53.7905 70.2254 54.4201 70.2003C55.5733 70.1553 56.7281 70.177 57.883 70.192C59.3766 70.2104 60.3039 71.1467 60.3057 72.6087C60.3057 74.069 59.3783 74.997 57.8813 75.0103C56.6837 75.0203 55.486 75.0337 54.2901 75.0036C53.7734 74.9903 53.5852 75.1772 53.6417 75.6579C53.6588 75.8014 53.6571 75.95 53.6417 76.0952C53.5938 76.5508 53.7905 76.731 54.2661 76.721C55.2054 76.6993 56.1481 76.6893 57.0874 76.7244C58.8788 76.7928 59.8848 78.0712 59.5238 79.7769C59.2791 80.9302 58.3449 81.6011 56.9009 81.6061C53.5236 81.6178 50.1446 81.6094 46.7672 81.6111V81.6061Z" fill="#007057"/>
<path d="M76.5935 39.3094C76.5884 47.3655 70.5865 54.185 62.6342 55.43C61.4383 55.6169 60.3022 55.3315 59.1388 55.3799C54.6768 55.5702 51.1591 53.6208 48.0401 50.7569C47.6004 50.353 47.4567 49.9207 47.5286 49.3199C47.9392 45.8785 46.6423 43.1347 43.8262 41.0635C43.4292 40.7714 43.3078 40.436 43.3078 40.0004C43.3112 33.685 45.9597 28.7232 51.5561 25.5004C61.7634 19.6206 74.7628 25.7707 76.4293 37.1798C76.5405 37.9392 76.6517 38.7053 76.5901 39.3111L76.5935 39.3094ZM60.9062 29.0336H60.8583C60.8583 28.5963 60.836 28.1574 60.8651 27.7218C60.8942 27.2745 60.6906 27.1176 60.2595 27.156C60.0901 27.171 59.9156 27.1727 59.7462 27.156C59.2757 27.1109 59.0909 27.3045 59.1029 27.7652C59.1234 28.5763 59.0978 29.3891 59.1097 30.2002C59.1166 30.6208 58.9763 30.8511 58.5024 30.8962C57.2483 31.0163 56.2525 31.6205 55.4279 32.5284C53.5681 34.5779 53.7272 38.994 57.7102 39.9653C58.735 40.2157 59.777 40.2824 60.8223 40.3141C62.458 40.3659 63.7412 41.5408 63.8695 43.133C63.9841 44.5667 62.8823 45.977 61.3835 46.2607C60.3262 46.461 59.2483 46.4293 58.1893 46.3141C56.9181 46.1756 56.1139 45.3811 56.0575 44.1211C56.013 43.0997 55.7769 43.2666 54.9522 43.2265C54.4116 43.1998 54.2593 43.4168 54.2644 43.9225C54.2833 46.1722 55.9805 47.9614 58.3005 48.0415C58.978 48.0648 59.1405 48.3035 59.1149 48.8927C59.0806 49.6404 59.1166 50.3914 59.1046 51.1408C59.0978 51.5313 59.25 51.7282 59.6692 51.6999C59.8608 51.6865 60.0559 51.6832 60.2458 51.7015C60.7317 51.7499 60.8805 51.5296 60.8634 51.079C60.836 50.3313 60.8891 49.5786 60.8463 48.8309C60.8138 48.2668 61.0003 48.0315 61.5991 47.9397C64.0543 47.5608 65.7515 45.4295 65.6078 42.9795C65.4709 40.6429 63.4281 38.7253 60.9832 38.6135C60.0884 38.5734 59.1867 38.5551 58.3107 38.3448C56.7589 37.9726 55.9685 36.9896 56.0335 35.5259C56.0985 34.0438 57.185 32.7954 58.6136 32.5902C59.5477 32.4566 60.4904 32.4433 61.428 32.5301C63.0619 32.6786 63.8301 33.4797 63.8695 35.0869C63.8815 35.5442 64.0286 35.7428 64.5042 35.6961C64.7369 35.6727 64.9747 35.6878 65.2091 35.6894C65.4692 35.6894 65.5753 35.5693 65.6146 35.3156C65.9106 33.3963 64.3982 31.3167 62.4306 30.9162C61.9225 30.8127 61.2005 31.1198 60.949 30.6258C60.7283 30.1935 60.9028 29.5693 60.9028 29.0302L60.9062 29.0336Z" fill="#007057"/>
<path d="M29.1192 70.6744C29.1192 74.1492 29.1192 77.6256 29.1192 81.1004C29.1192 81.9816 29.1158 81.9867 28.2432 81.9867C25.1003 81.9883 21.9591 81.975 18.8161 81.9967C18.2122 82.0017 17.9983 81.8248 18 81.2173C18.0171 74.1625 18.0154 67.1078 18.0017 60.0514C18.0017 59.5006 18.1523 59.2837 18.7597 59.2887C21.9659 59.3137 25.1721 59.3137 28.3784 59.2887C28.996 59.2837 29.1295 59.5173 29.1278 60.0597C29.1107 63.5979 29.1192 67.1362 29.1192 70.6744Z" fill="#007057"/>
</svg>
