<svg width="98" height="98" viewBox="0 0 98 98" fill="none" xmlns="http://www.w3.org/2000/svg">
<path d="M17 48.8133C19.7 46.8283 22.4 44.8433 25.0983 42.8583C26.0367 42.1683 26.9733 41.4717 27.9117 40.7833C28.025 40.7 28.1367 40.5483 28.2867 40.6017C28.4933 40.675 28.4117 40.8867 28.4133 41.0383C28.4217 42.2033 28.4317 43.3667 28.41 44.5317C28.4017 44.9733 28.5217 45.1567 29.0033 45.165C39.7267 45.355 49.2217 52.7433 52.0133 63.3217C52.4967 65.155 52.7883 67.02 52.7883 68.9233C52.7883 72.665 52.7783 76.4083 52.8033 80.15C52.8067 80.7433 52.6383 80.9417 52.03 80.9317C49.9883 80.8983 47.9467 80.9017 45.9067 80.93C45.3567 80.9367 45.1917 80.76 45.195 80.215C45.2167 76.9517 45.1817 73.6867 45.2117 70.4233C45.25 66.3 44.2383 62.5117 41.645 59.2467C38.5467 55.3467 34.505 53.16 29.5 52.8183C28.4183 52.745 28.4183 52.7533 28.4183 53.845C28.4183 54.8217 28.4233 55.8 28.4133 56.7767C28.4133 56.9483 28.5033 57.1883 28.285 57.2717C28.1183 57.3367 27.99 57.1533 27.86 57.0567C24.93 54.8917 22.005 52.7217 19.075 50.5567C18.39 50.05 17.6933 49.56 17 49.0617C17 48.9783 17 48.895 17 48.8117V48.8133Z" fill="#007057"/>
<path d="M49.125 17C51.1267 19.71 53.1267 22.42 55.1284 25.1283C55.8084 26.0483 56.4934 26.965 57.17 27.8867C57.2634 28.0133 57.45 28.15 57.33 28.3133C57.2684 28.3967 57.0634 28.3933 56.9234 28.3933C55.7784 28.4 54.6317 28.4233 53.4884 28.385C52.9334 28.3667 52.7817 28.5533 52.7834 29.0967C52.8 34.7917 52.7834 40.485 52.8067 46.18C52.81 46.8617 52.6484 47.335 52.0684 47.7517C51.105 48.4433 50.2417 49.2633 49.43 50.1317C49.1117 50.4717 48.89 50.4717 48.57 50.1317C47.6567 49.16 46.6634 48.2717 45.5934 47.475C45.2117 47.19 45.2017 46.8333 45.2017 46.43C45.205 40.6933 45.205 34.9583 45.2034 29.2217C45.2034 28.6728 44.9306 28.3978 44.385 28.3967C43.3017 28.3967 42.22 28.3967 41.1367 28.395C40.9734 28.395 40.7534 28.4583 40.665 28.315C40.5434 28.12 40.7617 27.9783 40.865 27.8367C43.4034 24.4117 45.945 20.99 48.4867 17.5667C48.6234 17.3833 48.745 17.19 48.8734 17C48.9567 17 49.04 17 49.1234 17H49.125Z" fill="#007057"/>
<path d="M81 49.0617C78.2684 51.0717 75.5367 53.08 72.8067 55.09C71.9017 55.7567 71 56.4267 70.0934 57.09C69.9667 57.1833 69.83 57.3717 69.6667 57.2517C69.5834 57.19 69.5851 56.985 69.5851 56.845C69.5784 55.64 69.5717 54.435 69.5851 53.2283C69.5884 52.8517 69.4584 52.7183 69.0701 52.7383C65.5867 52.9183 62.4267 53.9983 59.6317 56.0967C58.0184 57.3083 56.6684 58.765 55.5701 60.4567C55.4601 60.6267 55.3901 60.9083 55.1751 60.9C54.9317 60.8917 54.9384 60.5883 54.8751 60.405C54.0801 58.115 53.0217 55.955 51.6484 53.9567C51.3734 53.555 51.3951 53.3033 51.7317 52.9467C55.7817 48.6517 60.7334 46.1117 66.5817 45.315C67.3834 45.205 68.1934 45.1067 69.0084 45.1583C69.44 45.185 69.5967 45.0167 69.5901 44.5817C69.5684 43.4183 69.5817 42.255 69.5851 41.09C69.5851 40.9283 69.5217 40.7083 69.6667 40.62C69.8634 40.5 70.005 40.7183 70.145 40.8217C73.56 43.3417 76.9717 45.8683 80.3834 48.39C80.5834 48.5383 80.7951 48.6717 81.0017 48.8117V49.0617H81Z" fill="#007057"/>
</svg>
