<svg width="98" height="98" viewBox="0 0 98 98" fill="none" xmlns="http://www.w3.org/2000/svg">
<path d="M69.1841 36.142C69.9996 36.3062 70.8769 36.1024 71.7044 35.6295C71.8958 35.5186 72.1151 35.4533 72.3264 35.3762C73.9774 34.7607 74.2585 34.8577 74.8886 36.4487C75.5067 38.0121 76.6452 38.3643 78.7208 38.3129C79.4386 38.2951 80.0886 38.3386 80.7526 38.6018C81.9589 39.0807 83.2051 39.4013 84.523 39.4389C85.508 39.4666 85.6755 39.8386 85.6296 40.836C85.5559 42.4251 85.0175 43.7628 83.865 44.8631C83.5002 45.2134 83.6138 45.5062 83.9867 45.7734C84.3296 46.0188 84.6805 46.2602 84.9896 46.5452C85.9965 47.4772 86.2697 48.9278 85.7054 50.1626C85.5559 50.4872 85.2787 50.6396 84.9657 50.7345C84.3436 50.9245 83.7015 51.0156 83.0535 51.0334C81.4225 51.0769 80.4356 52.0881 79.5961 53.2953C79.3469 53.6534 79.4007 54.1007 79.4625 54.5222C79.6859 56.044 79.5124 56.321 77.997 56.7089C75.9733 57.2254 73.9255 57.6548 71.9217 58.2624C70.7214 58.6265 69.5988 59.0955 68.5839 59.8613C67.5551 60.6371 66.4325 61.2901 65.3519 61.9966C64.6799 62.4359 64.5523 62.8455 64.9052 63.5599C65.2103 64.1813 65.5433 64.7888 65.8683 65.4003C66.0358 65.715 66.279 65.9544 66.602 66.1147C67.7465 66.6807 69.5051 66.4096 70.4163 65.519C70.9846 64.9649 71.5129 64.3673 72.1869 63.9319C72.3923 63.7994 72.6215 63.6351 72.8728 63.8132C73.1041 63.9775 73.1081 64.2367 73.0542 64.488C72.8608 65.3785 72.7352 66.2948 72.4421 67.1536C72.1011 68.151 71.172 68.4063 70.2249 68.5171C69.8062 68.5666 69.3775 68.5211 68.9548 68.5468C68.3686 68.5824 67.8283 68.713 67.4634 69.2453C66.9509 69.9954 66.1016 69.936 65.3598 69.9578C64.5124 69.9815 63.9561 70.3318 63.5035 70.9888C63.1546 71.4974 62.8097 72.0178 62.3331 72.4275C61.7728 72.9103 61.1208 73.1695 60.403 72.8826C59.7211 72.6115 59.5596 71.9268 59.6234 71.3252C59.761 70.0429 58.9096 69.2157 58.3553 68.2519C58.1759 67.9373 57.7911 67.8601 57.4421 67.8067C57.1231 67.7592 56.7981 67.7216 56.4751 67.7117C55.0295 67.6682 54.9418 66.6154 55.4841 65.711C55.9746 64.8917 56.7642 64.494 57.5976 64.1437C58.1938 63.8944 58.8139 63.6885 59.3204 63.271C59.5257 63.1008 59.7949 62.9148 59.6653 62.6021C59.5576 62.3449 59.2665 62.335 59.0193 62.3211C58.7701 62.3073 58.5168 62.2796 58.2736 62.3152C56.5588 62.5705 55.3107 61.773 54.1841 60.6212C52.5093 58.9075 49.672 59.1469 48.2862 61.1179C46.7669 63.2789 44.6394 64.8284 42.6395 66.4669C41.2877 67.5732 39.4633 67.5613 37.7625 67.2704C36.6978 67.0883 36.4884 66.2315 37.2022 65.4003C37.611 64.9273 38.0835 64.5217 38.6318 64.2189C39.6746 63.641 39.9418 62.7307 39.7963 61.6384C39.7006 60.924 39.6388 60.2116 39.88 59.513C40.1293 58.7967 40.6098 58.5236 41.3355 58.7729C41.9676 58.9906 42.5678 59.3013 43.1839 59.5684C43.461 59.6891 43.7601 59.8198 44.0253 59.5902C44.2705 59.3765 44.1549 59.0915 44.0911 58.8263C43.802 57.6232 43.0882 56.6278 42.4461 55.6047C42.0613 54.9932 41.7144 54.3876 41.5688 53.6633C41.4013 52.8322 40.9408 52.1851 40.1751 51.7418C39.1124 51.1244 38.2809 50.224 37.3917 49.3968C35.7268 47.8473 33.5833 47.6989 31.751 49.0584C30.3174 50.1211 28.7542 50.689 26.9517 50.5841C26.1801 50.5406 25.4144 50.5169 25.3725 51.631C25.3586 51.9714 24.9857 52.0525 24.6687 52.0307C24.2101 51.9991 23.7954 51.8328 23.4285 51.5598C21.1196 49.8381 18.4916 48.6963 15.9016 47.4812C15.2257 47.1646 14.5438 46.8578 13.8878 46.5056C12.8549 45.9495 12.7313 45.3281 13.475 44.4198C14.131 43.6184 14.9844 43.0662 15.9295 42.6487C16.8188 42.2569 16.9663 41.9818 16.7949 41.0378C16.7909 41.0141 16.7889 40.9864 16.7789 40.9666C16.0212 39.4646 16.6732 38.4118 17.8416 37.454C18.9542 36.5417 19.999 35.5503 21.0657 34.5846C22.2282 33.5298 22.6429 31.5826 22.0168 30.13C21.7337 29.473 21.4027 28.8358 21.4486 28.0838C21.4964 27.316 21.7915 27.0113 22.5392 27.1874C23.4106 27.3912 24.1044 27.1696 24.7205 26.5719C25.3247 25.9882 26.0305 25.7171 26.8919 25.814C27.9805 25.9347 29.0792 25.9704 30.1638 26.1128C31.4479 26.281 32.6861 26.5719 33.8505 27.223C35.324 28.0502 36.9889 28.3035 38.6637 28.444C38.8133 28.4559 38.9808 28.4084 39.1104 28.4618C41.5868 29.473 44.4759 29.8312 45.8457 32.6076C45.8676 32.6512 45.8916 32.6947 45.9195 32.7363C46.2644 33.2369 46.5296 33.9494 47.3012 33.7534C48.0769 33.5575 48.1825 32.8154 48.2364 32.1426C48.346 30.7673 48.2822 29.3781 48.5335 28.0126C48.7767 26.6847 49.331 26.0851 50.6669 26.2909C52.5093 26.5759 53.9807 26.1643 55.3725 24.9552C56.0963 24.3259 57.141 24.1972 58.0981 24.0172C58.4391 23.9519 58.7222 24.0785 58.9874 24.3021C59.7451 24.9433 60.4748 25.6122 61.2963 26.1801C62.0061 26.6709 62.2394 27.973 61.8945 28.9803C61.3601 30.5417 61.5655 30.9097 63.1845 31.3451C64.002 31.5648 64.8155 31.7983 65.623 32.0476C66.1594 32.2138 66.4166 32.5859 66.4066 33.1657C66.3966 33.7059 66.3827 34.2482 66.5262 34.7845C66.8233 35.8887 67.1483 36.1499 68.3108 36.142C68.56 36.142 68.8092 36.142 69.1941 36.142H69.1841Z" fill="#007057"/>
</svg>
