<svg width="279" height="46" viewBox="0 0 279 46" fill="none" xmlns="http://www.w3.org/2000/svg">
<g clip-path="url(#clip0_130_451)">
<path d="M270.464 9.99945V3.1159H272.724C274.366 3.1159 275.183 3.8297 275.183 5.25731C275.183 6.32491 274.802 6.99527 274.032 7.26837L276.092 9.99945H274.796L272.815 7.39872H271.646V9.99945H270.464ZM272.724 6.25663C273.572 6.25663 274.002 5.92766 274.002 5.26351C274.002 4.59937 273.578 4.28281 272.724 4.28281H271.652V6.25663H272.724ZM272.591 0.844139C275.68 0.844139 278.182 3.40763 278.182 6.57319C278.182 9.73876 275.68 12.3022 272.591 12.3022C269.501 12.3022 266.999 9.73876 266.999 6.57319C266.999 3.40763 269.501 0.844139 272.591 0.844139ZM272.591 0.00619507C269.047 0.00619507 266.175 2.94831 266.175 6.5794C266.175 10.2105 269.047 13.1526 272.591 13.1526C276.135 13.1526 279.006 10.2105 279.006 6.5794C279.006 2.94831 276.135 0.00619507 272.591 0.00619507Z" fill="#007057"/>
<path d="M211.654 6.57321H237.309V13.1402H218.069V16.4299H234.104V23.0031H218.069V39.4268H211.654V6.57321Z" fill="#007057"/>
<path d="M208.449 13.1402H202.033V39.4268H208.449V13.1402Z" fill="#007057"/>
<path d="M179.589 32.8598H198.829V39.4268H173.173V6.57321H179.589V32.8598Z" fill="#007057"/>
<path d="M240.52 13.1402H262.965V19.7134H246.929V23.0031H259.76V29.5701H246.929V32.8598H262.965V39.4268H240.52V13.1402Z" fill="#007057"/>
<path d="M166.758 0H0V46H166.758V0Z" fill="#007057"/>
<path d="M159.27 16.5913C158.555 14.5988 157.416 12.8671 155.86 11.3898C154.303 9.91257 152.285 8.74566 149.808 7.87668C147.33 7.0077 144.349 6.57321 140.86 6.57321H127.726C124.237 6.57321 121.25 7.0077 118.779 7.87668C116.301 8.74566 114.284 9.91257 112.727 11.3898C111.17 12.8671 110.031 14.5988 109.316 16.5913C108.601 18.5837 108.244 20.7189 108.244 23.0031C108.244 25.2873 108.601 27.4225 109.316 29.4149C110.031 31.4074 111.17 33.1391 112.727 34.6164C114.284 36.0937 116.301 37.2606 118.779 38.1295C121.256 38.9985 124.237 39.433 127.726 39.433H140.86C144.349 39.433 147.336 38.9985 149.808 38.1295C152.285 37.2606 154.303 36.0937 155.86 34.6164C157.416 33.1391 158.555 31.4074 159.27 29.4149C159.985 27.4225 160.342 25.2873 160.342 23.0031C160.342 20.7189 159.985 18.5837 159.27 16.5913ZM150.795 26.2432C150.492 27.2487 149.959 28.1115 149.184 28.8439C148.408 29.5763 147.354 30.1536 146.009 30.5756C144.664 31.0039 142.932 31.215 140.818 31.215H127.769C125.648 31.215 123.91 31.0039 122.553 30.5756C121.196 30.1474 120.13 29.5701 119.354 28.8439C118.579 28.1115 118.046 27.2487 117.743 26.2432C117.44 25.2376 117.295 24.1576 117.295 23.0031C117.295 21.8486 117.446 20.7686 117.743 19.7631C118.046 18.7575 118.585 17.8948 119.372 17.1623C120.16 16.4299 121.232 15.8527 122.589 15.4306C123.946 15.0023 125.685 14.7913 127.805 14.7913H140.812C142.932 14.7913 144.658 15.0023 146.003 15.4306C147.348 15.8589 148.408 16.4361 149.178 17.1623C149.953 17.8948 150.486 18.7575 150.789 19.7631C151.092 20.7686 151.237 21.8486 151.237 23.0031C151.237 24.1576 151.086 25.2376 150.789 26.2432H150.795Z" fill="white"/>
<path d="M6.41539 6.57321H54.5157V14.7851H14.4301V18.8941H51.311V27.1059H14.4301V31.215H54.5157V39.4268H6.41539V6.57321Z" fill="white"/>
<path d="M105.827 6.57321H77.2089C73.7195 6.57321 70.7329 7.0077 68.2612 7.87668C65.7835 8.74566 63.7662 9.91257 62.2093 11.3898C60.6524 12.8671 59.5135 14.5988 58.7987 16.5913C58.0839 18.5837 57.7264 20.7189 57.7264 23.0031C57.7264 25.2873 58.0839 27.4225 58.7987 29.4149C59.5135 31.4074 60.6524 33.1391 62.2093 34.6164C63.7662 36.0937 65.7835 37.2606 68.2612 38.1295C70.739 38.9985 73.7195 39.433 77.2089 39.433H105.778L105.736 31.2212H77.2513C75.131 31.2212 73.3924 31.0101 72.0354 30.5818C70.6784 30.1536 69.6122 29.5763 68.8368 28.8501C68.0613 28.1177 67.5282 27.2549 67.2253 26.2494C66.9224 25.2438 66.777 24.1638 66.777 23.0093C66.777 21.8548 66.9285 20.7748 67.2253 19.7693C67.5282 18.7637 68.0674 17.901 68.8549 17.1685C69.6425 16.4361 70.7147 15.8589 72.0717 15.4368C73.4287 15.0085 75.1673 14.7975 77.2876 14.7975H105.772L105.815 6.58563L105.827 6.57321Z" fill="white"/>
</g>
<defs>
<clipPath id="clip0_130_451">
<rect width="279" height="46" fill="white"/>
</clipPath>
</defs>
</svg>
