<svg width="162" height="27" viewBox="0 0 162 27" fill="none" xmlns="http://www.w3.org/2000/svg">
<g clip-path="url(#clip0_168_492)">
<path d="M157.044 5.86924V1.82889H158.356C159.309 1.82889 159.784 2.24786 159.784 3.08581C159.784 3.71244 159.562 4.10591 159.116 4.26621L160.312 5.86924H159.559L158.409 4.34272H157.73V5.86924H157.044ZM158.356 3.67237C158.848 3.67237 159.098 3.47928 159.098 3.08945C159.098 2.69962 158.852 2.51382 158.356 2.51382H157.733V3.67237H158.356ZM158.279 0.495468C160.072 0.495468 161.525 2.00012 161.525 3.85817C161.525 5.71622 160.072 7.22088 158.279 7.22088C156.485 7.22088 155.032 5.71622 155.032 3.85817C155.032 2.00012 156.485 0.495468 158.279 0.495468ZM158.279 0.00363159C156.221 0.00363159 154.553 1.73052 154.553 3.86182C154.553 5.99311 156.221 7.72 158.279 7.72C160.336 7.72 162.004 5.99311 162.004 3.86182C162.004 1.73052 160.336 0.00363159 158.279 0.00363159Z" fill="white"/>
<path d="M122.896 3.85818H137.792V7.71273H126.621V9.64364H135.931V13.5018H126.621V23.1418H122.896V3.85818Z" fill="white"/>
<path d="M121.035 7.71274H117.31V23.1418H121.035V7.71274Z" fill="white"/>
<path d="M104.277 19.2873H115.449V23.1418H100.552V3.85818H104.277V19.2873Z" fill="white"/>
<path d="M139.657 7.71274H152.689V11.5709H143.378V13.5018H150.828V17.3564H143.378V19.2873H152.689V23.1418H139.657V7.71274Z" fill="white"/>
<path d="M96.8271 0H0V27H96.8271V0Z" fill="white"/>
<path d="M92.4795 9.73836C92.0644 8.56888 91.4031 7.55242 90.4991 6.68533C89.5951 5.81824 88.4238 5.13332 86.9851 4.62326C85.5464 4.11321 83.8158 3.85818 81.7897 3.85818H74.1637C72.1376 3.85818 70.4035 4.11321 68.9683 4.62326C67.5296 5.13332 66.3583 5.81824 65.4543 6.68533C64.5503 7.55242 63.889 8.56888 63.4739 9.73836C63.0589 10.9078 62.8513 12.1611 62.8513 13.5018C62.8513 14.8425 63.0589 16.0958 63.4739 17.2653C63.889 18.4348 64.5503 19.4512 65.4543 20.3183C66.3583 21.1854 67.5296 21.8703 68.9683 22.3804C70.407 22.8904 72.1376 23.1455 74.1637 23.1455H81.7897C83.8158 23.1455 85.55 22.8904 86.9851 22.3804C88.4238 21.8703 89.5951 21.1854 90.4991 20.3183C91.4031 19.4512 92.0644 18.4348 92.4795 17.2653C92.8946 16.0958 93.1021 14.8425 93.1021 13.5018C93.1021 12.1611 92.8946 10.9078 92.4795 9.73836ZM87.5585 15.4036C87.3826 15.9938 87.0731 16.5002 86.6228 16.9301C86.1726 17.36 85.5605 17.6988 84.7796 17.9466C83.9987 18.198 82.9927 18.3218 81.7651 18.3218H74.1883C72.9572 18.3218 71.9477 18.198 71.1597 17.9466C70.3718 17.6952 69.7527 17.3564 69.3025 16.9301C68.8522 16.5002 68.5427 15.9938 68.3668 15.4036C68.1909 14.8134 68.1065 14.1795 68.1065 13.5018C68.1065 12.8242 68.1945 12.1903 68.3668 11.6001C68.5427 11.0099 68.8558 10.5034 69.313 10.0735C69.7703 9.64364 70.3929 9.30482 71.1808 9.05708C71.9688 8.8057 72.9783 8.68183 74.2094 8.68183H81.7616C82.9927 8.68183 83.9952 8.8057 84.7761 9.05708C85.557 9.30846 86.1726 9.64728 86.6193 10.0735C87.0695 10.5034 87.3791 11.0099 87.555 11.6001C87.7308 12.1903 87.8153 12.8242 87.8153 13.5018C87.8153 14.1795 87.7273 14.8134 87.555 15.4036H87.5585Z" fill="#007057"/>
<path d="M3.7251 3.85818H31.6543V8.67818H8.37879V11.09H29.7935V15.91H8.37879V18.3218H31.6543V23.1418H3.7251V3.85818Z" fill="#007057"/>
<path d="M61.4478 3.85818H44.8309C42.8048 3.85818 41.0707 4.11321 39.6355 4.62326C38.1969 5.13332 37.0255 5.81824 36.1215 6.68533C35.2175 7.55242 34.5562 8.56888 34.1412 9.73836C33.7261 10.9078 33.5186 12.1611 33.5186 13.5018C33.5186 14.8425 33.7261 16.0958 34.1412 17.2653C34.5562 18.4348 35.2175 19.4512 36.1215 20.3183C37.0255 21.1854 38.1969 21.8703 39.6355 22.3804C41.0742 22.8904 42.8048 23.1455 44.8309 23.1455H61.4196L61.395 18.3255H44.8556C43.6244 18.3255 42.6149 18.2016 41.827 17.9502C41.039 17.6988 40.42 17.36 39.9697 16.9337C39.5195 16.5038 39.2099 15.9974 39.034 15.4072C38.8582 14.817 38.7738 14.1831 38.7738 13.5055C38.7738 12.8278 38.8617 12.1939 39.034 11.6037C39.2099 11.0135 39.523 10.5071 39.9803 10.0772C40.4375 9.64728 41.0601 9.30846 41.8481 9.06072C42.636 8.80934 43.6455 8.68547 44.8767 8.68547H61.4161L61.4407 3.86547L61.4478 3.85818Z" fill="#007057"/>
</g>
<defs>
<clipPath id="clip0_168_492">
<rect width="162" height="27" fill="white"/>
</clipPath>
</defs>
</svg>
